<?xml version="1.0" standalone="yes"?><svg xmlns="http://www.w3.org/2000/svg" viewBox="0 0 116.09 63.46" style="zoom: 1;"><defs><style><![CDATA[.cls-1{fill:#f1f4f9;fill-opacity:0.4}.cls-8{fill:#ff0000;fill-opacity:0.4}.cls-9{fill:#DEB887;fill-opacity:0.4}.cls-2,.cls-3,.cls-4{fill:none;stroke-width:2px;}.cls-5{fill:none;stroke-width:2px;}.cls-6{fill:none;stroke-width:2px;}.cls-7{fill:none;stroke-width:2px;}.cls-2,.cls-3{stroke:#4158a4;stroke-miterlimit:10;}.cls-2,.cls-4{stroke-linecap:round;}.cls-4{stroke:#4256a5;stroke-linejoin:round;}.cls-5{stroke-linecap:round;}.cls-5{stroke:#ff0000;stroke-linejoin:round;}.cls-6{stroke-linecap:round;}.cls-6{stroke:#7CFC00;stroke-linejoin:round;}.cls-7{stroke-linecap:round;}.cls-7{stroke:#DEB887;stroke-linejoin:round;}]]></style></defs><title>Asset 18</title><g id="Layer_2" data-name="Layer 2"><g id="Layer_1-2" data-name="Layer 1"><circle class="cls-1" cx="24.51" cy="27.3" r="19"></circle><circle class="cls-1" cx="25.55" cy="27.34" r="22.06"></circle><circle class="cls-1" cx="25.26" cy="28.75" r="5.14"></circle><path class="cls-8" d="M56.76,59.3 C45.51,63.8 38.26,46.76 39.07,37 c1.44,-13.75 8.88,-9 17.44,-9 c9,0 16,-7.5 17.58,11 C74.93,48.76 68,63.55 56.76,59.3  Z "></path><path class="cls-9" d="M70.6,24.63 l4,-9.44 c1,-2.26 1.51,-4.36 3.65,-3.45 l-.28,0 A3.6,3.6 0 0 1 76.24,7 a3.6,3.6 0 0 1 4.67,-2 l16.61,7.1 l16.49,7 a3.71,3.71 0 0 1 -2.91,6.8 s.47,.06 -.18,-.22 c2.14,.92 1.69,3.05 .72,5.32 L99,60.69 a4.37,4.37 0 0 1 -5.65,2.45 L70,53.8 "></path><path class="cls-2" d="M17.85,46.85A22.27,22.27,0,1,1,36.66,7.47"></path><path class="cls-2" d="M23.26,47.51a22.31,22.31,0,0,1-5.41-.66"></path><path class="cls-2" d="M23.26,47.51"></path><path class="cls-2" d="M29.52,46.62l-.81.22"></path><path class="cls-2" d="M33.37,45.09a22.12,22.12,0,0,1-3.85,1.53"></path><circle class="cls-3" cx="23.26" cy="25.25" r="5.14"></circle><path class="cls-5" d="M54,26 c9,0 16,-7.5 17.58,11 c.83,9.71 -6.08,24.5 -17.33,20.25 C43,61.8 35.76,44.76 36.57,35 C38,21.3 45.45,26 54,26  Z "></path><path class="cls-6" d="M54.08,24.38 c-.07,-5 -.57,-5.83 3.43,-10.58 "></path><path class="cls-6" d="M41.21,6.11 l-.74,-.21 A11.52,11.52 0 0 0 42.15,15 a15.3,15.3 0 0 0 7.61,5.88 l.68,.24 a13.46,13.46 0 0 0 -1.58,-9 A13.54,13.54 0 0 0 41.21,6.11  Z "></path><line x2="72.27" x1="81.85" class="cls-7" y2="52.01" y1="56.11"></line><path class="cls-7" d="M68.08,20.94 l4,-9.44 c1,-2.26 1.51,-4.36 3.65,-3.45 l-.28,0 A3.6,3.6 0 0 1 73.72,3.3 a3.6,3.6 0 0 1 4.67,-2 L95,8.37 l16.49,7 a3.71,3.71 0 0 1 -2.91,6.8 s.47,.06 -.18,-.22 c2.14,.92 1.69,3.05 .72,5.32 L96.44,57 a4.37,4.37 0 0 1 -5.65,2.45 l-4.3,-1.84 "></path><path class="cls-4" d="M77.85,9.38"></path></g></g></svg>